<?xml version="1.0" standalone="no"?>
<!DOCTYPE svg PUBLIC "-//W3C//DTD SVG 20010904//EN"
 "http://www.w3.org/TR/2001/REC-SVG-20010904/DTD/svg10.dtd">
<svg version="1.0" xmlns="http://www.w3.org/2000/svg"
 width="90.000000pt" height="90.000000pt" viewBox="0 0 90.000000 90.000000"
 preserveAspectRatio="xMidYMid meet">

<g transform="translate(0.000000,90.000000) scale(0.100000,-0.100000)"
fill="#000000" stroke="none">
<path d="M145 889 c17 -8 16 -9 -7 -6 -33 5 -62 -22 -52 -48 6 -15 8 -16 16
-1 6 10 22 16 43 16 31 0 35 -3 35 -27 0 -37 13 -20 16 22 3 37 -15 56 -53 54
-16 0 -16 -1 2 -10z"/>
<path d="M703 893 c-8 -3 -12 -22 -12 -51 1 -27 4 -36 6 -21 4 23 8 26 34 23
17 -2 35 -6 40 -10 5 -3 12 2 16 12 12 31 -45 63 -84 47z m44 -9 c-3 -3 -12
-4 -19 -1 -8 3 -5 6 6 6 11 1 17 -2 13 -5z"/>
<path d="M85 799 c-4 -6 -5 -12 -2 -15 2 -3 7 2 10 11 7 17 1 20 -8 4z"/>
<path d="M98 712 c-15 -10 -30 -23 -33 -31 -4 -10 0 -9 14 3 25 23 66 15 82
-17 7 -12 13 -60 13 -107 l1 -85 -42 -3 -43 -3 0 92 c0 51 -2 90 -5 87 -3 -3
-12 -50 -20 -104 l-14 -99 3 110 c3 80 2 96 -4 60 -5 -27 -9 -78 -9 -112 -1
-58 1 -63 20 -63 21 0 21 -2 17 -165 -4 -155 -3 -165 15 -171 10 -3 21 -3 24
0 3 3 11 59 17 123 l12 118 7 -70 c18 -171 17 -165 45 -165 l25 0 -6 165 c-4
106 -3 164 3 160 6 -3 10 -1 10 4 0 6 7 11 16 11 13 0 15 7 11 38 -4 20 -9 63
-13 95 -4 31 -11 57 -16 57 -5 0 -6 5 -3 10 18 29 -35 81 -61 59 -16 -13 -48
-4 -39 11 8 12 6 12 -27 -8z m139 -174 c-3 -7 -5 -2 -5 12 0 14 2 19 5 13 2
-7 2 -19 0 -25z m10 -70 c-3 -7 -5 -2 -5 12 0 14 2 19 5 13 2 -7 2 -19 0 -25z"/>
<path d="M682 704 c-29 -20 -42 -73 -42 -176 0 -69 3 -88 14 -88 8 0 17 -7 20
-16 3 -8 2 -12 -4 -9 -6 3 -10 1 -10 -4 0 -6 5 -11 11 -11 8 0 9 -31 4 -104
-7 -101 -7 -104 15 -111 29 -9 33 -4 42 68 4 34 12 82 16 107 l8 45 11 -50
c12 -52 9 -70 -7 -45 -7 10 -10 -7 -10 -52 0 -38 3 -68 8 -68 4 0 6 21 5 48
l-2 47 9 -44 c18 -84 27 -64 35 69 4 72 9 129 12 127 2 -3 12 1 22 9 16 14 16
22 1 124 -11 76 -22 115 -35 130 -23 25 -49 22 -51 -5 -2 -53 -5 -65 -14 -65
-9 0 -18 24 -24 63 -3 25 -10 28 -34 11z m45 -252 c9 -6 8 -25 -4 -80 -9 -39
-20 -72 -25 -72 -4 0 -8 36 -8 80 0 80 6 92 37 72z m-27 -213 c0 -31 -4 -48
-10 -44 -17 11 -12 95 7 95 2 0 3 -23 3 -51z"/>
<path d="M462 115 c0 -16 2 -22 5 -12 2 9 2 23 0 30 -3 6 -5 -1 -5 -18z"/>
<path d="M492 120 c0 -14 2 -19 5 -12 2 6 2 18 0 25 -3 6 -5 1 -5 -13z"/>
<path d="M288 119 c-19 -12 7 -16 57 -10 l50 7 -48 5 c-27 2 -53 1 -59 -2z"/>
<path d="M411 114 c0 -11 3 -14 6 -6 3 7 2 16 -1 19 -3 4 -6 -2 -5 -13z"/>
<path d="M437 109 c4 -13 8 -18 11 -10 2 7 -1 18 -6 23 -8 8 -9 4 -5 -13z"/>
<path d="M560 120 l-45 -6 50 -5 c28 -3 54 -3 58 1 13 12 -15 16 -63 10z"/>
<path d="M697 117 c-3 -8 -1 -20 4 -28 6 -10 9 -7 9 14 0 29 -5 35 -13 14z"/>
</g>
</svg>
